Coordinates
version=1
nRows=17
nColumns=36
inDegrees=yes

Units are S.I. units (second, meters, Newtons, ...)
If the header above contains a line with 'inDegrees', this indicates whether rotational values are in degrees (yes) or radians (no).

endheader
time	pelvis_tilt	pelvis_list	pelvis_rotation	pelvis_tx	pelvis_ty	pelvis_tz	hip_flexion_r	hip_adduction_r	hip_rotation_r	knee_angle_r	knee_angle_r_beta	ankle_angle_r	subtalar_angle_r	mtp_angle_r	hip_flexion_l	hip_adduction_l	hip_rotation_l	knee_angle_l	knee_angle_l_beta	ankle_angle_l	subtalar_angle_l	mtp_angle_l	lumbar_extension	lumbar_bending	lumbar_rotation	arm_flex_r	arm_add_r	arm_rot_r	elbow_flex_r	pro_sup_r	arm_flex_l	arm_add_l	arm_rot_l	elbow_flex_l	pro_sup_l
      0.00000000	      3.80969466	      1.60083487	      4.69094002	     -0.12463860	      1.25921736	      0.03128163	     -5.96326769	     -1.60521315	     -4.53544530	      3.61335907	      0.06306501	      9.89703149	      1.49601792	     -5.95813383	     -4.75642773	     -0.96900866	     -1.51333419	      1.63654868	      0.02856316	      7.70157773	     -3.97878073	     -5.95813383	     -9.85403085	      0.72343882	     -4.72114958	      7.33080183	     -4.72812684	     23.52162492	     25.38788429	     74.32210375	      4.22644862	     -5.36430830	     18.32809557	     34.39481484	     71.08031526
      0.01666670	      2.36831615	      1.16744561	      4.52419371	     -0.12434458	      1.25608586	      0.03007237	     -4.12051415	     -1.12754717	     -3.32775116	      3.99702352	      0.06976122	     11.12097676	      1.70987599	     -7.02441345	     -3.25552791	     -1.11359007	     -1.59832889	      1.44931626	      0.02529534	      7.39336356	     -3.35645414	     -7.02441345	     -7.62366950	      1.34418397	     -4.70229792	      6.73601140	     -4.26770781	     18.04937746	     25.47549818	     79.44987934	      3.84542174	     -4.21356258	     13.99573481	     33.45250259	     73.27400318
      0.03333330	      1.49045285	      1.44128172	      3.90426314	     -0.12308795	      1.26045722	      0.03164865	     -3.45522981	     -1.41595137	     -3.64221837	      3.19104083	      0.05569417	     10.80930899	      1.54775906	     -7.03935345	     -2.41629343	     -0.75795799	     -2.65703600	      1.21880285	      0.02127212	      7.40417700	     -2.13084651	     -7.03935345	     -6.43942478	      0.60491735	     -4.21744732	      6.54502586	     -3.80487535	     17.08253506	     25.06873254	     79.25426738	      3.79307152	     -4.55716606	     14.08953969	     33.35296649	     73.31888169
      0.05000000	      1.88504391	      1.66491632	      3.58007804	     -0.12154430	      1.25381562	      0.03189511	     -4.04504761	     -1.59168381	     -3.52013947	      2.58198724	      0.04506418	     11.06924984	      1.61394217	     -7.05227231	     -3.17886304	     -0.49459796	     -3.19328666	      0.76472840	      0.01334703	      7.73662702	     -1.51554521	     -7.05227231	     -6.86300921	      0.09961060	     -3.69737073	      6.34322847	     -3.65090245	     16.65409970	     25.24737365	     79.04692921	      3.93172079	     -5.10832420	     14.93583861	     33.82775281	     73.60835546
      0.06666670	      1.76154144	      1.70341787	      3.45769820	     -0.12457740	      1.25706996	      0.03101061	     -3.98060865	     -1.63270004	     -3.64943240	      2.55579043	      0.04460696	     10.88363833	      1.58044512	     -7.05297549	     -3.17041155	     -0.36986588	     -3.22402536	      0.63586261	      0.01109790	      7.91815723	     -1.55100673	     -7.05297549	     -6.91777123	      0.08583184	     -3.67514544	      6.37560653	     -3.63538581	     16.67193645	     25.30147479	     79.03630314	      3.98176839	     -5.17208219	     15.01383565	     33.82522105	     73.63499741
      0.08333330	      1.98058185	      1.87124132	      3.20450927	     -0.11991397	      1.26028367	      0.03184046	     -4.45061796	     -1.75446034	     -3.11846095	      2.17408871	      0.03794501	     10.03829589	      0.74652826	     -7.07516084	     -3.56782803	     -0.20531594	     -3.82913592	      0.56764969	      0.00990736	      8.61149464	     -0.56081422	     -7.07516084	     -7.05444898	     -0.21472198	     -2.91114061	      5.82915543	     -4.03683398	     18.16507939	     26.12213121	     78.63433239	      4.46583738	     -5.64370732	     18.37533231	     33.60676646	     74.70345350
      0.10000000	      1.68255535	      1.91781828	      3.09061828	     -0.11930743	      1.25784457	      0.03201377	     -4.32067632	     -1.81513259	     -3.18499235	      1.92131616	      0.03353329	      9.87944466	      0.83961563	     -7.12620238	     -3.35524021	     -0.11831653	     -3.82584949	      0.50754288	      0.00885829	      8.84563538	     -0.50257489	     -7.12620238	     -6.41863961	     -0.32957330	     -2.47649968	      5.54899063	     -4.36497023	     19.89885317	     26.17265723	     77.14278925	      4.77112549	     -5.75183874	     20.54503045	     32.85737177	     75.41550417
      0.11666670	      1.58122997	      1.95183045	      2.94417454	     -0.11903808	      1.25214554	      0.03159141	     -4.26779410	     -1.89255335	     -3.18676765	      1.77299266	      0.03094456	     10.03201721	      0.89081193	     -7.18126072	     -3.31935151	     -0.05230560	     -3.97243114	      0.48790155	      0.00851549	      9.35921487	     -0.12131012	     -7.18126072	     -6.13709606	     -0.40284126	     -2.32483205	      5.39573922	     -4.49188341	     20.51555357	     26.33794576	     75.42530111	      4.68241730	     -5.69723297	     20.89396926	     32.71843248	     74.35329077
      0.13333330	      1.56676033	      1.95757530	      2.91721558	     -0.11842477	      1.26234918	      0.03212200	     -4.32072979	     -1.90516652	     -3.18990544	      1.78085198	      0.03108173	     10.02788918	      0.88902977	     -7.18127994	     -3.26450983	     -0.06826726	     -3.96923850	      0.55628563	      0.00970902	      9.35824709	     -0.12065734	     -7.18127994	     -6.13679949	     -0.40393564	     -2.32621784	      5.39029645	     -4.49270365	     20.51802445	     26.33776587	     75.42512922	      4.67800341	     -5.69441216	     20.89641531	     32.71796983	     74.35402635
      0.15000000	      1.46836351	      1.99674606	      2.81231986	     -0.11742380	      1.25564427	      0.03205026	     -4.48185096	     -1.91947683	     -2.77371382	      1.38368880	      0.02414993	      9.27826023	     -0.01377274	     -7.19962160	     -3.24176328	     -0.00783935	     -3.81785029	      0.44368730	      0.00774380	      9.17761801	     -0.41544812	     -7.19962160	     -5.76035935	     -0.51869421	     -2.14019933	      4.93726109	     -5.06071539	     22.95178517	     27.14281516	     75.27424198	      4.53105235	     -5.95069227	     22.56742262	     32.63682922	     75.25686352
      0.16666670	      1.54037827	      2.03217226	      2.80645202	     -0.11556983	      1.25960311	      0.03130334	     -4.70781428	     -1.95141630	     -2.84885946	      1.21155733	      0.02114566	      9.05890621	      0.13248995	     -7.22514596	     -3.37545063	      0.01910975	     -3.87250828	      0.42391779	      0.00739876	      8.97822925	     -0.25725873	     -7.22514596	     -5.65768384	     -0.58009802	     -2.20405246	      4.88592753	     -5.13015694	     23.45359283	     26.98248544	     74.62666955	      4.40995387	     -5.92715505	     22.88742870	     32.24241492	     75.17487605
      0.18333330	      1.51126845	      2.01952684	      2.82377058	     -0.11710848	      1.26115357	      0.03218427	     -4.76540816	     -1.91474147	     -2.83049766	      1.16492463	      0.02033177	      9.00430489	      0.15830171	     -7.22548082	     -3.34869118	     -0.00620520	     -3.89948924	      0.42741424	      0.00745979	      8.95384917	     -0.25571757	     -7.22548082	     -5.64667051	     -0.60319762	     -2.21861464	      4.84291665	     -5.17496862	     23.47446890	     26.96737865	     74.61918787	      4.34487537	     -5.97725281	     22.90987845	     32.19769294	     75.19093883
      0.20000000	      1.57463282	      2.00510106	      2.81457602	     -0.11748104	      1.25958525	      0.03049733	     -4.90391326	     -1.90159818	     -2.71422883	      0.98591883	      0.01720753	      8.77732827	     -0.02680350	     -7.28702781	     -3.38544688	      0.00043634	     -3.90195940	      0.41014763	      0.00715843	      8.78359823	     -0.21745758	     -7.28702781	     -5.61397193	     -0.53365565	     -2.34220272	      4.86341161	     -5.39226739	     24.14206913	     27.24993743	     73.10992211	      4.39739908	     -6.01879584	     23.62827232	     31.71029421	     74.31440107
      0.21666670	      1.64404039	      2.00575604	      2.93680329	     -0.11660900	      1.25917217	      0.02989496	     -5.03790382	     -1.89745729	     -2.73057778	      0.90734237	      0.01583611	      8.68564089	     -0.06621596	     -7.33535270	     -3.47872253	      0.00407514	     -3.80827172	      0.41219177	      0.00719410	      8.63614038	     -0.22797387	     -7.33535270	     -5.63186278	     -0.51139590	     -2.49602187	      4.92287595	     -5.46239349	     24.50009786	     27.24382941	     71.79560846	      4.50368690	     -6.04246541	     24.19565797	     31.20443684	     73.41836424
      0.23333330	      1.70439876	      1.97212073	      2.94989993	     -0.11561019	      1.26046102	      0.03029318	     -5.15042446	     -1.87181418	     -2.76055831	      0.85550514	      0.01493138	      8.63224756	     -0.12166533	     -7.38152174	     -3.56694981	     -0.03370190	     -4.12895551	      0.41889517	      0.00731110	      8.75505812	      0.41411751	     -7.38152174	     -5.65192520	     -0.45337777	     -2.46527423	      4.88092296	     -5.61129174	     24.81941875	     27.41398956	     70.34762272	      4.55571912	     -6.06120210	     24.79584889	     30.91178321	     72.34339993
      0.25000000	      1.79512423	      1.92999663	      2.93058672	     -0.11537790	      1.26148443	      0.02990908	     -5.29342149	     -1.82805294	     -2.67325762	      0.80824615	      0.01410656	      8.53154054	     -0.27753018	     -7.40416528	     -3.68961896	     -0.08414060	     -4.05624234	      0.42030785	      0.00733576	      8.53293745	      0.16323989	     -7.40416528	     -5.63409232	     -0.39373091	     -2.42982270	      5.03875462	     -5.80218076	     26.15448410	     27.15534250	     69.91504119	      4.87146521	     -6.31081693	     26.67941526	     30.32966933	     73.41814178
      0.26666670	      1.77743008	      1.90053318	      2.96158924	     -0.11800467	      1.25594305	      0.02963439	     -5.20592510	     -1.81423801	     -2.70744504	      0.75634118	      0.01320064	      8.57248877	     -0.30615647	     -7.40425546	     -3.68283669	     -0.10654610	     -4.10927742	      0.43686645	      0.00762476	      8.56574985	      0.13495800	     -7.40425546	     -5.70978911	     -0.36760076	     -2.49239535	      4.97638414	     -5.81521866	     26.15630885	     27.13498032	     69.91791288	      4.94010720	     -6.35193815	     26.66939989	     30.32739115	     73.43449879
